<svg xmlns="http://www.w3.org/2000/svg" viewBox="0 0 104.02 52.26"><defs><style>.cls-1{fill:#333;}.cls-2{fill:#fff;}</style></defs><title>wild logo darkgray</title><g id="Layer_2" data-name="Layer 2"><g id="Layer_1-2" data-name="Layer 1"><path class="cls-1" d="M23,48.71l-.38.09-.63.43-.62.68h-.19V50l-.77.58h-.19l-.24.24-.34,0-.19.24H19.2l-1,.52L16.8,52l-1.15.1v.14l-.72,0L13.3,52l-1.39-.48-.58-.34-.24-.33-.38-.15-.2-.43L10.27,50l0-.19L10,49.52,9.7,48.8l-.1-.62H9.46l-.05-1.44V45.39l.24-1.53L10,42.32l.39-1.44.09-.09v-.34l.25-.34.57-1.39.19-.77.63-1.44.57-1.39.63-1.39.53-1.39.48-1.49,0-.19.24-.2.58-1.34.48-1.49.72-1.39.24-1L17,24.7l.24-1,.24-.2.28-1.24-.52-.48-1.49.38-1.35.58L13,23.26l-1.1.44h-.1l-.09.14-1.35.53-.43.19v.1l-1.35.81-1.29.87-1.15,1-.1.33-.29.29-.09.38-.29.29L5,29.84v.91l.14.91.2.63.81,1.1.34.1.19.29,1.34.72.48.62.15,1.49.14.67-.14.82-.24.43L7.73,39H6.91l-1.44-.48-.62-.1L3.79,37.9l-.67-.57-.29-.1-1-1.15L1,35,.62,34,.34,32.48l-.2-.29L0,31.42l.1-1.53.14-.77v-.53h.1l.09-.86.15-.1.62-1.29L1.44,26l.14-.48.24-.14L2,25l.24-.09v-.2l1.1-1.1.58-.72.29-.1.28-.24.39-.09.05-.15h.24v-.09h.19L5.47,22h.19l.77-.77.29-.05L8,20.48l1.39-.72.19-.14,1.49-.48.67-.34.67-.19.2-.24.52-.05.24-.14.77-.1.87-.34.09-.14,1.25-.48,1.49-.53,1-.38,1.29-.39.77-.14.53-.43V15l.14-.1.2-.43,1-1.11L24,12.56l.34-.24.38-.1.63-.38.57-.19,1.59-.1.57.43v.19l.19.2v.38l.15.24.14.72v.82l-.43.62-1.06,1.06L26,17.36l-.43.58-.29.67-.14.09-.05.34-.24.34-.1.33-.24.29-.14.48-.24.29-.1.77-.14.14-.53,1.39-.58,1.49L22.13,26l-.58,1.39L21,28.88l-.63,1.44-.62,1.39L19.35,33l-.24.43-.2.77-.62,1.39L17.71,37l-.57,1.35-.48,1.44-.58,1.39-.38,1-.15.72-.48,1.49-.38,1,.19.87.29.72.82.53.76,0,1.49-.63.29-.24.38-.14.24-.29.29-.14,1.06-1.2.33-.29.15-.38.29-.15.14-.53.43-.33.15-.39.48-.53.09-.28.29-.19v-.2H23l.24-.67.19-.09v-.34l.38-.58.63-1.39.67-1.39.62-1.39.53-1.4.53-1.24.14-.24.15-.77.19-.24.43-1.06.58-1.49.19-.52.09,0,.1-.53.1-.1.09-.52.15-.15.14-.53.19-.09v-.24h.1v-.19l.24-.24L30,24.85l.67-1.35,0-.62.53-1.34.63-1.3.47-1.34.15-.2L33,17.26l.43-1.1.58-.62h1.53l1.54-.1.81.1.68.24.38.33.05.72-.1.72-.67,1.39-.48,1.4-.34.67-.24.29-.38,1.24-.1.34-.14.14-.43,1.2-.15.15-.28,1.1-.44.63-.24.67-.28.29,0,.76-.15.15-.14.48-.38.72-.53,1.44-.63,1.44-.57,1.39-.48,1.49-.63,1.39-.24.29,0,.72-.15.19-.05.34-.24.57-.14,0v.24h-.1l0,.29-.14.14-.14.53h-.1v.24l-.1,0-.14.48h-.1l-.14.77-.58,1.15-.14.58h-.1l-.24,1.2-.09.09v.58l-.1.09-.09.72,0,.82.39.67.62.29.63.05,1.2-.29.28-.24.29,0,.34-.24.1-.19.33-.14.1-.2.57-.33,1-1.2.87-1.3.43-.38.05-.29.48-.58.24-.57.14-.15.1-.33.24-.19.09-.34.53-.72.53-1.35L38.26,37l.58-1.39.24-.29.09-.58.15-.14,0-.29.15-.19.09-.58.2-.24.24-.81h.09l.39-1.11.14-.19.34-1,.62-1.44.14-.19V28.4l.34-.62.43-1.59.58-1.29.24-.29,0-.24h.09v-.24h.1v-.19l.33-.68L44.21,22l.24-.34L45,20.24l.14-.34.24-.19v-.29l.2-.38.09-.67L46.23,17l.48-.68.14-.52.77-1,.29-.63.48-.62.91-.68L50.36,12l.52-.09,1.45-.53.62-.15,1.68,0,1.54.24,1,.24v.1l.58.14.77.48.33.15.1.14h.19l.1.19.29.05.09.19.34.15.48.57h.24l.53.48.33.1v.09h.24v.1H62l.1.24.38.14,1,1.2.24.63.1.86,0,.53-.09.1-.1.57-.38.58-.53.53-1,.53v.09h-.19l-.24.15-.77.09L59,20.67l-.67-.33-.76-.87-.29-.86-.1-.77-.29-.63-.86-.71-.62-.2-.82-.09-.77.09-.67.34-.63.48-.23.29L52,17.6v.24L51.7,18l-.34,1.49-.67,1.3-.62,1.44-.63,1.39-.14.14-.43,1.39-.34.92-.33,1.1h-.15v.19l-.67,1.35-.1.43h-.09v.19h-.1v.24H47L46.42,31l-.34,1.15H46l-.39,1-.14.53-.24.19v.24h-.1l-.09.53-.24.24-.1.72L44,37l-.14.72-.24.24v.34l-.53,1.3-.72,1.34-.24.72-.29.29-.14.38h-.1l-.67,1.39-.24.44-.19.09-.29.63-.29.24-.81,1.24-.53.77L38,47.6l-.38.48-.63.53v.19l-1.1,1-.1.1h-.19l-.33.33H35l-.62.48-1,.53-.29,0-1.1.43v.14l-1.2.1-.72.24H28.56L27.31,52l-.67-.15-.09-.14-.77-.19-.34-.34h-.19l-1-1.05v-.24l-.43-.58-.67-.58Zm-10-2.16.19,0,.24-.29h.34v-.43l-.39.09-.24.24-.14.34Zm.09-6,.44-.1h-.1l-.19-.24h-.15Zm.15,2.06h.19l.1-.19-.29-.1ZM14,37.86l.57.09-.09-.77h-.34l-.14.53Zm.33-2.21V36l.34.1.1-.14v-.29l-.2-.1-.14.1Zm.24,3.07.34-.24.05-.34-.19-.09-.2.53Zm0,2.26.2.14.14-.24-.24-.09Zm1.3-8.88.19.09.19-.09.15-.24-.15-.1-.33.24Zm0,1.39.19.29.24,0,.1-.43-.15-.09H16l-.14.09Zm1.2-5.09.19,0,.15-.29h-.2l-.09.29Zm0,5.33.19.09.15-.24-.24-.09-.05.14Zm.77-1.54h-.19L17.43,32h-.15l.19.39.15,0,.19-.09Zm-.43-1.29.62-.34-.34-.1-.28.24Zm.76-1.44h.2v-.2h-.2Zm.1-10.52v.2l.38.09.15-.09V18.9l-.29-.1-.19.1Zm.1,8.6h.24l.19-.24-.43-.1Zm.86-1.44-.05-.2-.57-.14V26l.28.15ZM18.91,20v.77l-.19.09.43,0,.53-.48.05.19.38-.19.53-.05.24-.29-.05-.14-.76-.1-.29-.24-.19-.05v.19Zm.34-1.39.43-.87-.29-.14-.19,0-.19.57.14.34Zm-.19,9.12h.19l.1-.24-.2-.1-.09.24Zm1.29-4-.67.38h-.19l-.24.19.1.24.33-.19.15.1.19.33.24.05.43-.58.1-.28-.39-.15Zm-1.1,4.7.43,0,.19-.29-.09-.33h-.29l-.24.57Zm2.4-8.5-.29.39.19.38-.14.1-.05.19L21,21.1h-.29l.19.53-.43.58.14.29.2,0,.14.24-.05.15-.14.05-.39-.24h-.24v.09l-.33.34.33.14.34.29.38-.34H21l.05.1.38.05.29.14.14.29H22l0-.34-.28-.43,0-.43.39-.43-.29-1,.43-.53-.14-1.1h-.24l-.24.29Zm-1.73,1.73.34.15.19-.15-.34-.19-.14,0Zm.77-2.49h.19v-.29l-.19-.05Zm.43,2.49.19.05.24.82-.38-.05L21,22.3,21,22l.09-.29ZM22,19.38l.09-.1V19l-.33-.53h-.2v.72l.29.15Zm.09,26.83h.19l.24-.24h.1l.24.34H23L22.9,46l-.58-.29-.24.39Zm.43-25.87h.68l-.05-.29L23,19.9,22.8,20l-.24.29ZM23,44.15,23,44l-.19-.33-.34-.05,0,.38.1.15Zm.67-26.65h.19v-.19h-.19Zm.62,29.67v.19l.15.15h.43l-.15-.34-.19-.1-.14,0Zm.43-30.29-.24-.1,0,.2.14.09.14-.09Zm.92,28,.33.2.72-.24.34-.29-.15,0,0-.19-.15-.1-.14,0-.19.38-.29.15-.67-.58h-.24v.24l.19.34.24.09Zm.09,2.16.39,0,.14.1v.38l.1.15.19-.34.05-.62-.1-.15-.19.1-.39-.1-.43.1.19.24Zm.19-3.6.34-.14.1-.19,0-.19-.29-.2h-.19l-.1.39.15.24ZM26.11,49l.15.1.19,0,.1-.29h-.24l-.2.15Zm.53-11,.24.09L27,38l-.24-.09Zm.43,7.82v-.19l-.33-.14.14.33ZM27,47.07l.09-.14,0-.19-.29-.1v.24l.14.19Zm-.1-5.52.05.2h.58v-.2l-.39-.14-.19.09Zm.53-3.93h.24v-.2h-.24Zm.43,2.49-.05-.24-.14-.09-.14.24.19.09Zm.34-3-.43-.1v.19l.14.1.24-.1Zm1.73-8.26.19,0,.24-.38-.15-.1-.33.2v.24Zm0,1.39.33.15.34-.05,0-.19L30.19,30l-.28.15Zm0,1.64.14.09h.38l.15-.09v-.44l-.43,0-.24.29ZM31,29l-.38.1-.1.14,0,.1.43.1,0-.15.34-.09,0-.2-.09-.09-.29.05Zm.34,1.73L31,30.66l-.05.09.1.15.24,0Zm.28-.53.1-.14-.1-.48h-.09l-.19.34.14.24Zm.15-2.83H32l.1-.14v-.39h-.29Zm.1,1.78.19-.05v-.29h-.19Zm1.53-3.6-.1-.19-.19-.1-.14.19.48.48.48.05v-.24l.19-.29L34,25.23l-.53.29Zm-.24,1.63.24-.14.05-.2-.1-.24h-.09l-.1.15Zm3.46,18.34v-.19l-.15-.1H36.2l.14.29Zm1.77-1.39-.14-.29-.62,0,0,.24.09.14h.68Zm-.57-3.94.33.14.44-.14.24.29.19,0,0-.15-.1-.14L38.6,40v-.19l.14-.24H38.4l0,.19-.53.28Zm.91,3.5V44l.14.1.39-.14-.05-.2-.14-.09-.29.05ZM39.8,40l.33-.15.1-.33-.19-.2-.34.44,0,.14Zm.67-3.94h.38L41,36l-.15-.33-.29-.1-.09.15Zm.43,1,.1.09.33-.19.24.29.72-.19.1-.24-1.25-.05L41,37Zm1.2-2.16-.05-.34h-.14l-.1.15.15.19Zm.43.09.15.34.48.19,0,.19.2.15.09-.24-.33-.29.24,0-.1-.53-.67.2Zm.19-1.2.15-.19.09.19v-.24h-.24Zm.77,0h.24v-.24h-.24Zm.34-1.63.24,0,.09-.14L44,31.76h-.1l-.09.29Zm2.06-5.33-.48-.38-.19.14.53.44H46V27Zm13.59-.76V27l-.1.1-.09.76-.58,1.35-.63,1.29-.28.68v.38l-.53,1.25-.29.72-.24.24v.19l-.19.34v.19l-.34.57-.29.77,0,.43h-.1l-.19.77-.67,1.3-.48,1.49-.39.86-.29.82-.28.29-.39,1.39-.38,1.53-.15.82,0,1.06.53.57.62.15h.63l.19-.1.1-.19h.19l.53-.48.33-.15.19-.33.39-.15,1-1,1.1-1.2.82-1.06.19-.1.48-.76.48-.58v-.24h.1l.14-.33.19-.1.1-.34H61L61,40l.44-.38.09-.34.24-.1.1-.33.24-.29.29-.72.52-.53.34-.1h.48l.62.34.53.72.15.58,0,.33-.19.44-.24.19,0,.28-.82,1.35-.24.29-.05.29h-.14l-.19.52-.91,1.16-.87,1.2-1.1,1.05-.87,1.15-1,1.11-.44.43-.33.1-.34.43H57v.09l-.33.15-.1.19-1,.38-.29.29-.29,0-1.24.58-.58.14-1.58.1-.77,0-.72-.34-.39,0L49,50.29l-.57-.48L47.72,49V48.8l-.15-.09,0-.34-.14,0L47,46.83l.1-1.39.14-.77-.09-.09L47.38,43l.48-1.39.19-.53L48.2,41l.38-1.39.58-1.45.57-1.34.63-1.39.38-1.3.24-.29.62-1.44,0-.19.24-.24.39-1.49.57-1.29.53-1.44.43-1.2.53-.53.67-.38,1.44-.2,1.68.1.77.14.53.34ZM47.19,21.87l.53.15.14-.05.19-.58-.29-.29v-.38l-.14-.19-.24.24-.14,1Zm1.1-1.44v-.24L48,19.9l-.15.15,0,.29.29.09ZM48,19.14h.24v-.2H48Zm.52,27.41.24.09.1-.19-.19-.14-.1.14Zm1.3-1.2.14.33.29-.14,0-.29-.43,0Zm.14-1.11h.2v-.19h-.2ZM51,16.64l.34.05.24-.15-.2-.09h-.28Zm1.2-1.39.15-.34v-.24h-.2l-.14.15.09.38Zm.15,19-.29-.1,0,.19.14.1.2-.1Zm.19,3.16.19,0L53,37V36.9l-.19,0-.24.43Zm1,.29h-.29l.05.19h.19l0-.09Zm.57-4.32-.33.63v.24l.38.33h.15l.28-.24.15-.33v-.44l-.48-.24Zm.34-2.49-.14.09-.1.53.67.38.29.48h.77L55.83,32l-.58-.53.82-.43,0-.24-.24-.19-.53.19-.43-.19-.1.34-.14.09-.19,0-.05-.72-.19-.09-.15.14,0,.34.19.19Zm.1-1h.19V29.7h-.19Zm.86,3.41-.1-.39-.33-.09.19.48Zm-.24-3h.24v-.19h-.24Zm0,3.41h.24v-.24h-.24Zm.48-3.7.33-.19.1-.58-.43.1-.14.29.09.29Z"/><path class="cls-1" d="M72.48,16.06l.14-.09,1.49-.05,1.68.1h.15l.43.28.24.53-.15.67-.28.72-.05.44-.29.62-.19.72-.19.24-.24,1-.2.24L74.45,23l-.15.15-.57,1.34-.24.67-.24.24,0,.53-.14.34-.15.09-.09.77-.29.43,0,.24-.14.1-.58,1.44-.14.72-.72,1.2-.34,1.54L70,34l-.62,1.44-1.15,2.88-.58,1.39-.38,1.15-.15.15-1,2.49-.33,1.4-.15.81v.58l.1.29.62.57.29.15.72-.1.72-.29.91-.72.29-.14.38-.43.29-.1.67-.91.34-.24.38-.58.58-.43.19-.48.53-.53.86-1.25.15-.14,0-.29.24-.09.09-.34.24-.1.1-.57.24-.2.1-.33.19-.1.77-1.34.43-.24H77l.72.38.34.67.1.72-.29.73L77,41.07l-.86,1.3-.2.34-.14.09-.67,1.35-.15.09,0,.19-.44.24v.2l-1,1.1-1,1.15-1.06,1.11-1.1,1-1.2.76-.48.15-.34.24-.33.09-.29.24-.77.24-1.39.24-.48-.09L65,51H63.41l-1.25-.48-.1-.19-.62-.38L60.72,49l0-.52-.19-.63-.34-.62,0-1.59.33-1.44.24-1.39.53-1.49.53-1.44.67-1.34.34-1.59.38-.62.53-1.3.48-1.29.48-1.49.57-1.34,1.16-2.79,0-.19.15-.1.24-.76.57-1.4L68,24.27l.53-1.39L69,21.39l.52-.91L70,19.33l.1-.67h.1l.38-1.11.62-1,.29-.24.39-.05v-.09l.52-.15Zm-9.89,30,.63,0,.24-.14-.68-.43-.14.05,0,.38Zm.34,1.39,0,.19h.38l.1-.19-.15-.1-.24.1ZM64.32,45l.38-.05.2-.38-.15-.1-.33.15-.1.29Zm2.3-7.06,0-.09-.14-.14-.34.14.29.09Zm-.33-3.69.43-.05.34-.38-.1-.44h-.34v.24l-.33.53Zm.77,1.63.14.1h.72v-.2l-.14-.09-.48,0-.24.14Zm.67-3.7-.1.2.05.14.48.34v-.44l.1-.14-.39-.19-.09.05Zm1.39-4.65.34.09.19-.09v-.24l-.39.05-.14.09Zm1.63-3.27.39,0,0-.29-.33-.1-.1.29Zm1.39-2.59.24.29-.09.24.09.19h.24l.15-.09.14-.87-.38-.19-.24.14Z"/><path class="cls-1" d="M92.35,47.31l.87,0L94,47l1.25-.82,1.06-1,.14-.14,0-.29.29-.24.14-.29,1-1v-.19l.24-.1.87-1.2.72-1.2.53-.62.14-.38.29-.25,0-.28h.09v-.2l.24-.23.1-.34.72-.87.76-.09.73.29.48.57.19.39v.62l-.77,1.49,0,.24L103,41v.2l-.24.24v.19l-.48.57-.19.1-.1.34-.33.19-.1.34-.77,1.1-.43.62-.58.58-.24.48-.19.1-.62.91-.58.53-.29.48h-.19l-.48.52L96,49.43l-.24,0-.09.24-.29,0L95,50l-.38.1-1,.57-.67.2h-.87l-.14.09-.58,0-.28.19-1.59-.14-1.39-.48-.14-.15-.29,0-.19-.34-.82-.86,0-.34-.24-.24v-.19l-.43-.34-.38.05-1.2.91-.15.15-.33.09-1.25.91-.58.39-.33.09-.24.24-1.49.2-1.44,0-.87,0-.09-.1h-.24v-.1h-.2v-.09l-.38-.1-.19-.24h-.19l-.48-.57-.63-.53v-.19l-.67-1.3,0-.34-.24-.33,0-.67-.19-.63.24-1.54.1-1.53.29-.86.09-.87.39-1.44.48-1.92.28-.43V36.9H76l.48-1.44L77.09,34l.72-1.3.57-1.06L79,30.32l1-1.2,1.24-1.25.1-.33.58-.58.62-.38.1-.15.19-.05.91-.67.53-.14.43-.24L86.26,25l.72,0,1.48.24.63.05v.1l.67.29,1.1,1.1.82,1,.43.05.34-.15.67-1.39.53-1.39.62-1.35.58-1.39.43-1.25.43-1.2L96.1,19l.43-1.2.62-1.34.63-.44.29-.09h1.68l1.39.14h.24l.09-.09h.34l.1.09h.19l.48.58v.72l-.53,1.44-.63,1.39,0,.34-.15.09-.19.67-.24.34-.19,1-.15.1-.62,1.44-.48,1.15-.48,1.25-.14.09-.48,1.39-.15.34v.24l-.28.24-.29.72L97.25,31l-.67,1.11L96,33.63l-.33.67-.49,1.49-.62,1.44L94,38.63l-.48,1.24L93,41.26l-.58,1.49-.05.24-.24.24-.29,1.35-.19,1.68.15.53L92,47l.33.19Zm-16-1.63.19-.29v-.14l-.29-.1-.14.39.14.14Zm1.39,2.83-.05-.33-.14-.1h-.34l.15.34.28.09Zm.1-3.45h.24l0-.1-.09-.14h-.19l-.1.09.1.05Zm.24-5.14.23.1.1-.19-.24-.1Zm.33,4,.19.1.15-.19-.24-.15,0,.15Zm1.2-5.85,0-.39-.29-.19v.38l.25.2Zm-.24-1.44h.24v-.2h-.24Zm.24-1.4.19.1.15-.19L79.73,35l0,.15ZM82.75,46l1.3-.82,1.15-1,.48-.62.58-.48,0-.29.29-.14,0-.29.24-.29.19-.77.39-.72.24-.86.24-.29.19-.77.53-1.34.09-.1,0-.33.48-1,0-.39.77-1.34.24-.77v-.81l-.15-.77-.48-1-.91-.91-.91-.24-.29.14h-.19l-.34.24-.29.05-.19.29-.33,0-.44.44-.33.09-.39.43-.09.34-1,1.1-.43.58-.19.53-.29.19-.1.43-.48.72-.05.39-.24.33-.52,1.2-.58,1.4-.34.71-.38,1.4-.29,1.48L80,43.76V45l.09.67.68.48.33.15h.77l.82-.24ZM80.5,34.16h.33v-.34h-.24l-.09.24Zm2.16-3.36h.24v-.24h-.24Zm.52-.24.29.24h.19l.1-.1v-.19l-.14-.14-.39.09Zm2.55-1.92-.29-.1,0,.2.15.09.19-.09Zm.53,16.61v-.19L86,45l0,.19.14.1Zm.43,1.1v-.57l-.24-.1-.1.39.05.24.14,0Zm.62-.57-.14,0,0,.19L87.5,46l.24-.19.05-.19H87.6l-.19.14Zm.48-1.4-.05-.19-.43-.14v.24l.1.09Zm-.48,2.5.48.24H88l.1-.43-.14-.1H87.7l-.34.2Zm.91-4.32.1-.19-.34.05,0,.14.19,0Zm1.2.72-.76.19-.15.15,0,.19.14.1h.39l.38.14,0,.1h.19l.15-.2-.1-.33Zm-.24,3.27,0-.2-.2-.19-.09.05.14.1.05.28Zm.1,1.44.14-.58-.33-.1-.15.34.15.34Zm.24-6.2-.14-.09-.1.09v.29l.86-.09,0-.24-.1,0-.38.09Zm.53-2.93.14-.33-.09-.63-.58,0,0,.43.43.53Zm0,5.77-.34-.15.05.19.29,0Zm.33-4.28L90.29,40l-.24-.24-.15.48.34.14Zm-.09,6.34-.1-.58L90,46l.1.57.14.1Zm-.24-4,.24.09.09-.19-.24-.14,0,.14Zm.86-2.31,0-.19-.14-.33-.15,0v.39l.15.09Zm-.09.58v.29l.19,0,.09.15.24.05.1-.39-.34-.28-.19,0Zm.52-4.47.24.1.1-.24-.19-.1-.1.15ZM92,36l.24-.05.57.24.15-.33-.34,0-.1-.14-.38.09-.1.15Zm.33-2.73v-.2l-.24-.24v.39l.15,0Zm1.06-.2-.77.15-.43.29.05.43.28.43v.53l.2,0L93,34.4l-.34-.34.24,0,.77-.92.38.1.39-.1,0-.24-.29-.24-.19,0-.15-.24h-.33Zm-.19,4.42L92.69,37l-.34,0-.09.39.09.19.39.14.43-.09Zm0-1.73,0,.19.29.34h.15l0-.1-.43-.86-.38-.1-.39.05-.09.15.09,0v.2l.53.09ZM93.31,30l-.19-.09-.48.19.1.33-.2.53.2.72.24.48.43-.86-.34,0L93,31.14l.19-.1.67.19,0-.29.09,0,0-.2-.24-.24-.15-.57.1-.48-.34-.15-.09.34.09.34Zm.1,5.14.24-.05.19-.29-.43-.14Zm1.44-4.71.33-.14.2-.62-.29-.1-.19,0-.05.72Zm.62-2,.15-.53-.44-.1,0,.39.15.19Zm.34-2.6.38-.14,0-.29-.33-.09-.1.19.05.24Zm.24,3.6h.19v-.24h-.19Zm.53-3.5-.1.77.1.24.33-.15.24-.28.19-.58,0-.14-.72-.48h-.29l-.05.09.34.43Zm1.29-5.42.24.09.1-.19-.24-.1ZM98.64,22l0-.29v.33Z"/><path class="cls-1" d="M11.2,15.73l1.63,1.19a.4.4,0,0,0,.63-.27l.22-2a.4.4,0,0,0-.56-.4l-1.84.81A.4.4,0,0,0,11.2,15.73Z"/><circle class="cls-1" cx="15.01" cy="9.61" r="2.6"/><path class="cls-1" d="M13.86,7.27,16,12h0l0,0,.11,0,.06,0,.17-.12c3.44-2.48,4.77-2.68,5.25-2.54C17.05,5.83,13.86,7.27,13.86,7.27Z"/><circle class="cls-2" cx="14.01" cy="9.91" r="0.71"/><circle class="cls-1" cx="7.06" cy="13.11" r="2.6"/><path class="cls-1" d="M6.11,10.68,8.2,15.43h0a.71.71,0,0,1-.09.07H8l-.2.05c-4.16.87-5.2,1.71-5.42,2.16C2.89,12.06,6.11,10.68,6.11,10.68Z"/><circle class="cls-2" cx="7.53" cy="13.16" r="0.67"/><path class="cls-1" d="M11.76,4.44c2.25-1.91,5.54-1,5.54-1s-1.49-2.57-3-3S11.76,4.44,11.76,4.44Z"/><path class="cls-1" d="M18.13,4.07l-.94-.25S14.08,3,12,4.74l-.91.77.26-1.16c.08-.35.8-3.42,2.07-4.17a1.16,1.16,0,0,1,1-.13c1.66.47,3.19,3.07,3.25,3.18Zm-5.71-.56a7,7,0,0,1,4-.63A5.47,5.47,0,0,0,14.17.81a.4.4,0,0,0-.32,0h0A5.53,5.53,0,0,0,12.42,3.51Z"/><path class="cls-1" d="M5.43,7.22C2.5,7.59.94,10.63.94,10.63S.06,7.79.77,6.38,5.43,7.22,5.43,7.22Z"/><path class="cls-1" d="M.56,10.74c0-.12-.92-3-.15-4.54a1.17,1.17,0,0,1,.74-.61C2.56,5.16,5.32,6.7,5.63,6.88l1,.59-1.18.15C2.8,8,1.31,10.78,1.3,10.81l-.45.86Zm.82-4.39h0a.38.38,0,0,0-.26.2,5.54,5.54,0,0,0,0,3.08A7,7,0,0,1,4.3,7.09,5.44,5.44,0,0,0,1.38,6.35Z"/><path class="cls-1" d="M9.69,8.29A7.16,7.16,0,0,1,11,10.47a8.05,8.05,0,0,1,.36,1.21A3.06,3.06,0,0,1,11.38,13c-.18-.39-.39-.74-.57-1.11s-.35-.75-.5-1.13A9.23,9.23,0,0,1,9.69,8.29Z"/></g></g></svg>