<svg xmlns="http://www.w3.org/2000/svg" viewBox="0 0 104.02 52.71"><defs><style>.cls-1{fill:#fff;}</style></defs><title>wild logo white</title><g id="Layer_2" data-name="Layer 2"><g id="Layer_1-2" data-name="Layer 1"><path class="cls-1" d="M23,49.16l-.38.1-.63.43-.62.67h-.19v.1l-.77.57h-.19l-.24.24-.34,0-.19.24H19.2l-1,.53-1.44.33-1.15.1v.14l-.72.05-1.63-.24L11.91,52l-.58-.33-.24-.34-.38-.14-.2-.44-.24-.28,0-.2L10,50l-.28-.72-.1-.63H9.46l-.05-1.44V45.85l.24-1.54L10,42.78l.39-1.44.09-.1V40.9l.25-.33.57-1.4.19-.76L12.1,37l.57-1.4.63-1.39.53-1.39.48-1.49,0-.19.24-.19.58-1.35.48-1.48.72-1.4.24-1,.34-.53.24-1,.24-.19.28-1.25-.52-.48-1.49.38-1.35.58L13,23.72l-1.1.43h-.1l-.09.14-1.35.53L9.89,25v.1l-1.35.82-1.29.86-1.15,1-.1.34-.29.28-.09.39-.29.29L5,30.29v.92l.14.91.2.62.81,1.11.34.09.19.29L8.06,35l.48.62.15,1.49.14.68-.14.81L8.45,39l-.72.44H6.91l-1.44-.48-.62-.1-1.06-.48-.67-.58-.29-.09-1-1.16L1,35.48l-.39-1L.34,32.93l-.2-.28L0,31.88l.1-1.54.14-.77v-.52h.1l.09-.87.15-.09.62-1.3.24-.34L1.58,26l.24-.14L2,25.45l.24-.1v-.19l1.1-1.11.58-.72.29-.09L4.46,23l.39-.1.05-.14h.24v-.1h.19l.14-.24h.19l.77-.77.29,0L8,20.93l1.39-.72.19-.14,1.49-.48.67-.34.67-.19.2-.24.52-.05.24-.14.77-.1L15,18.2l.09-.15,1.25-.48,1.49-.52,1-.39,1.29-.38.77-.15.53-.43v-.24l.14-.1.2-.43,1-1.1L24,13l.34-.24.38-.09.63-.39.57-.19L27.51,12l.57.43v.19l.19.19v.38l.15.24.14.73V15l-.43.63-1.06,1.05L26,17.81l-.43.58-.29.67-.14.1-.05.33-.24.34-.1.34-.24.28-.14.48-.24.29L24,22l-.14.14-.53,1.4L22.75,25l-.62,1.44-.58,1.4L21,29.33l-.63,1.44-.62,1.4-.43,1.24-.24.44-.2.76L18.29,36l-.58,1.44-.57,1.34-.48,1.44-.58,1.39-.38,1-.15.72-.48,1.49-.38,1.06.19.86.29.72L16,48l.76-.05,1.49-.62.29-.24.38-.15.24-.28.29-.15,1.06-1.2.33-.29L21,44.6l.29-.14.14-.53.43-.34.15-.38.48-.53.09-.29.29-.19V42H23l.24-.67.19-.1V40.9l.38-.57.63-1.39.67-1.4.62-1.39.53-1.39.53-1.25.14-.24L27,32.5l.19-.24.43-1,.58-1.49.19-.53.09-.05.1-.53.1-.09L28.8,28l.15-.14.14-.53.19-.1V27h.1v-.19l.24-.24L30,25.3,30.67,24l0-.63L31.25,22l.63-1.3.47-1.34.15-.19L33,17.72l.43-1.11L34,16h1.53l1.54-.1.81.1.68.24.38.34.05.72-.1.72-.67,1.39-.48,1.39-.34.67-.24.29L36.82,23l-.1.33-.14.15-.43,1.2-.15.14-.28,1.11-.44.62-.24.67-.28.29,0,.77-.15.14-.14.48-.38.72-.53,1.44-.63,1.44-.57,1.39-.48,1.49-.63,1.4-.24.28,0,.72-.15.2-.05.33-.24.58-.14,0v.23h-.1l0,.29-.14.15-.14.53h-.1v.24l-.1,0-.14.48h-.1l-.14.77-.58,1.15-.14.58h-.1l-.24,1.2-.09.1v.57l-.1.1-.09.72,0,.81.39.68.62.28.63,0,1.2-.29.28-.24.29,0,.34-.24.1-.2.33-.14.1-.19.57-.34,1-1.2.87-1.29.43-.39.05-.29.48-.57.24-.58.14-.14.1-.34.24-.19.09-.34.53-.72.53-1.34.67-1.34.58-1.4.24-.28.09-.58.15-.15,0-.28.15-.2L39.6,34l.2-.24L40,33h.09l.39-1.1.14-.19.34-1,.62-1.44.14-.19v-.2l.34-.62.43-1.58.58-1.3.24-.29,0-.24h.09v-.24h.1v-.19l.33-.67.29-1.25.24-.34L45,20.69l.14-.33.24-.19v-.29l.2-.39.09-.67.58-1.39.48-.67.14-.53.77-1,.29-.62.48-.63.91-.67,1.06-.91.52-.1,1.45-.53.62-.14,1.68.05,1.54.24,1,.24v.09l.58.15.77.48.33.14.1.14h.19l.1.2.29,0,.09.2.34.14.48.58h.24l.53.48.33.09V15h.24v.1H62l.1.23.38.15,1,1.2.24.62.1.87,0,.53-.09.09-.1.58-.38.57-.53.53-1,.53v.1h-.19l-.24.14-.77.1L59,21.13l-.67-.34-.76-.86-.29-.87-.1-.77-.29-.62L56.07,17l-.62-.19-.82-.1-.77.1-.67.33-.63.48-.23.29-.34.19v.24l-.29.2L51.36,20l-.67,1.3-.62,1.44-.63,1.39-.14.15-.43,1.39-.34.91-.33,1.1h-.15v.2l-.67,1.34-.1.43h-.09v.19h-.1v.24H47l-.58,1.44-.34,1.16H46l-.39,1-.14.53-.24.19v.24h-.1l-.09.53-.24.24-.1.72L44,37.45l-.14.72-.24.24v.33L43.06,40l-.72,1.34-.24.72-.29.29-.14.39h-.1l-.67,1.39-.24.43-.19.1-.29.62-.29.24-.81,1.25-.53.77-.58.48-.38.48-.63.52v.2l-1.1,1-.1.1h-.19l-.33.34H35l-.62.48-1,.52-.29,0-1.1.43v.15l-1.2.09-.72.24H28.56l-1.25-.19-.67-.14-.09-.15L25.78,52l-.34-.33h-.19l-1-1.06v-.24l-.43-.58-.67-.57ZM13.06,47l.19,0,.24-.29h.34v-.43l-.39.1-.24.24-.14.33Zm.09-6,.44-.1h-.1l-.19-.24h-.15Zm.15,2.06h.19l.1-.19-.29-.09ZM14,38.31l.57.1-.09-.77h-.34l-.14.53Zm.33-2.21v.34l.34.09.1-.14V36.1l-.2-.09-.14.09Zm.24,3.07.34-.23L15,38.6l-.19-.1-.2.53Zm0,2.26.2.15.14-.24-.24-.1Zm1.3-8.88.19.1.19-.1.15-.24-.15-.1-.33.24Zm0,1.39.19.29.24.05.1-.43-.15-.1H16l-.14.1Zm1.2-5.09.19,0,.15-.29h-.2l-.09.29Zm0,5.33.19.1.15-.24-.24-.1-.05.15Zm.77-1.53h-.19l-.24-.24h-.15l.19.38.15.05.19-.1Zm-.43-1.3.62-.34-.34-.09-.28.24Zm.76-1.44h.2v-.19h-.2Zm.1-10.51v.19l.38.1.15-.1v-.24l-.29-.1-.19.1Zm.1,8.59h.24l.19-.24-.43-.1Zm.86-1.44-.05-.19-.57-.15v.2l.28.14Zm-.34-6.1v.77l-.19.1.43-.05.53-.48.05.19.38-.19.53-.05.24-.29-.05-.14-.76-.1L19.78,20l-.19,0v.19Zm.34-1.39.43-.86-.29-.15-.19.05-.19.58.14.33Zm-.19,9.12h.19l.1-.24-.2-.09-.09.24Zm1.29-4-.67.38h-.19l-.24.2.1.24.33-.2.15.1.19.34.24,0,.43-.57.1-.29-.39-.14Zm-1.1,4.7.43,0,.19-.29-.09-.34h-.29l-.24.58Zm2.4-8.49-.29.38.19.39-.14.09-.05.19-.38.15h-.29l.19.53-.43.57.14.29.2.05.14.24-.05.14-.14.05-.39-.24h-.24v.1l-.33.33.33.15.34.28.38-.33H21l.05.09.38.05.29.15.14.28H22L22,24l-.28-.43,0-.44.39-.43-.29-1,.43-.52L22.18,20h-.24l-.24.29Zm-1.73,1.73.34.14.19-.14-.34-.2-.14.05Zm.77-2.5h.19V19.3l-.19-.05Zm.43,2.5.19,0,.24.82-.38-.05L21,22.76,21,22.47l.09-.29ZM22,19.83l.09-.1v-.24L21.75,19h-.2v.72l.29.14Zm.09,26.83h.19l.24-.24h.1l.24.34H23l-.14-.34-.58-.28-.24.38Zm.43-25.87h.68l-.05-.29L23,20.36l-.19.05-.24.28ZM23,44.6l.09-.14-.19-.34-.34,0,0,.39.1.14ZM23.62,18h.19v-.19h-.19Zm.62,29.66v.2l.15.14h.43l-.15-.34-.19-.09-.14,0Zm.43-30.29-.24-.09,0,.19.14.1.14-.1Zm.92,28,.33.19.72-.24L27,45,26.83,45l0-.19-.15-.09-.14,0-.19.39-.29.14-.67-.57h-.24v.24l.19.33.24.1Zm.09,2.16.39,0,.14.09v.39l.1.14.19-.34.05-.62-.1-.14-.19.09-.39-.09-.43.09.19.24Zm.19-3.6.34-.15.1-.19,0-.19L26,43.21h-.19l-.1.38.15.24Zm.24,5.57.15.09.19-.05.1-.28h-.24l-.2.14Zm.53-11,.24.1.1-.19-.24-.1Zm.43,7.83v-.19L26.74,46l.14.34ZM27,47.53l.09-.15,0-.19-.29-.09v.24l.14.19ZM26.88,42l.05.19h.58V42l-.39-.15-.19.1Zm.53-3.94h.24v-.19h-.24Zm.43,2.5-.05-.24-.14-.1-.14.24.19.1Zm.34-3-.43-.09v.19l.14.1.24-.1Zm1.73-8.25.19-.05.24-.39-.15-.09-.33.19v.24Zm0,1.39.33.14.34-.05,0-.19-.34-.14-.28.14Zm0,1.63.14.1h.38l.15-.1v-.43l-.43.05-.24.28ZM31,29.48l-.38.09-.1.15,0,.09.43.1,0-.14.34-.1,0-.19-.09-.1-.29.05Zm.34,1.73-.34-.1-.05.1.1.14.24-.05Zm.28-.53.1-.15-.1-.48h-.09l-.19.34.14.24Zm.15-2.83H32l.1-.15v-.38h-.29Zm.1,1.77.19-.05v-.28h-.19ZM33.41,26l-.1-.19-.19-.1-.14.2.48.48.48,0v-.24l.19-.28L34,25.69l-.53.28Zm-.24,1.63.24-.14.05-.19-.1-.24h-.09l-.1.14ZM36.63,46V45.8l-.15-.1H36.2l.14.29ZM38.4,44.6l-.14-.29-.62-.05,0,.24.09.15h.68Zm-.57-3.94.33.15.44-.15.24.29L39,40.9l0-.14-.1-.14-.38-.15v-.19l.14-.24H38.4l0,.19-.53.29Zm.91,3.51v.24l.14.09.39-.14-.05-.19-.14-.1-.29,0Zm1.06-3.7.33-.14.1-.34L40,39.8l-.34.43,0,.15Zm.67-3.94h.38l.15-.09-.15-.34L40.56,36l-.09.14Zm.43,1,.1.1.33-.19.24.29.72-.2.1-.24-1.25,0-.19.19Zm1.2-2.16-.05-.33h-.14l-.1.14.15.19Zm.43.1.15.34.48.19,0,.19.2.14.09-.24-.33-.28.24,0-.1-.53-.67.19Zm.19-1.2.15-.19.09.19V34h-.24Zm.77,0h.24V34h-.24Zm.34-1.63.24,0,.09-.15L44,32.21h-.1l-.09.29Zm2.06-5.33-.48-.39-.19.15.53.43H46v-.1Zm13.59-.77v.86l-.1.1-.09.77-.58,1.34-.63,1.3-.28.67V32l-.53,1.25-.29.72-.24.24v.19l-.19.34v.19l-.34.58-.29.77,0,.43h-.1l-.19.77-.67,1.29-.48,1.49-.39.87-.29.81-.28.29-.39,1.39-.38,1.54-.15.81,0,1.06.53.58.62.14h.63l.19-.1.1-.19h.19L55.4,47l.33-.14.19-.34.39-.14,1-1.06,1.1-1.2.82-1,.19-.1.48-.77.48-.57v-.24h.1l.14-.34.19-.1.1-.33H61l0-.15.44-.38.09-.34.24-.09.1-.34.24-.29.29-.72.52-.52.34-.1h.48l.62.34.53.71.15.58,0,.34-.19.43-.24.19,0,.29-.82,1.34-.24.29-.05.29h-.14l-.19.53-.91,1.15-.87,1.2-1.1,1.06-.87,1.15-1,1.1-.44.43-.33.1-.34.43H57v.1l-.33.14-.1.19-1,.39-.29.29-.29,0-1.24.58-.58.14-1.58.1-.77-.05-.72-.33-.39,0L49,50.74l-.57-.48-.72-.76v-.24l-.15-.1,0-.34-.14,0L47,47.29l.1-1.39.14-.77-.09-.1.19-1.53.48-1.4.19-.52.15-.15L48.58,40l.58-1.44.57-1.34.63-1.4.38-1.29.24-.29.62-1.44,0-.19.24-.24.39-1.49.57-1.3.53-1.44.43-1.2.53-.53.67-.38,1.44-.19,1.68.09.77.15.53.33ZM47.19,22.33l.53.14.14,0,.19-.57-.29-.29v-.39L47.62,21l-.24.24-.14,1Zm1.1-1.44v-.24L48,20.36l-.15.14,0,.29.29.1ZM48,19.59h.24V19.4H48ZM48.48,47l.24.1.1-.2-.19-.14-.1.14Zm1.3-1.2.14.34.29-.15,0-.29-.43,0Zm.14-1.1h.2v-.2h-.2ZM51,17.09l.34.05.24-.14-.2-.1h-.28Zm1.2-1.39.15-.34v-.23h-.2l-.14.14.09.38Zm.15,19-.29-.1,0,.2.14.09.2-.09Zm.19,3.17.19-.05L53,37.5v-.15l-.19-.05-.24.44Zm1,.29h-.29l.05.19h.19l0-.1Zm.57-4.32-.33.62v.24l.38.34h.15l.28-.24.15-.34V34l-.48-.24Zm.34-2.5-.14.1-.1.52.67.39.29.48h.77l-.05-.43-.58-.53.82-.43,0-.24-.24-.2-.53.2-.43-.2-.1.34-.14.1-.19-.05-.05-.72-.19-.1-.15.15,0,.33.19.19Zm.1-1h.19v-.19h-.19Zm.86,3.41-.1-.38-.33-.1.19.48Zm-.24-3h.24v-.19h-.24Zm0,3.41h.24v-.24h-.24Zm.48-3.69.33-.2.1-.57-.43.09-.14.29.09.29Z"/><path class="cls-1" d="M72.48,16.52l.14-.1,1.49-.05,1.68.1h.15l.43.29.24.53-.15.67-.28.72-.05.43-.29.62-.19.72-.19.24-.24,1-.2.24-.57,1.59-.15.14L73.73,25l-.24.67-.24.24,0,.53-.14.33-.15.1-.09.77-.29.43,0,.24-.14.09-.58,1.44-.14.72-.72,1.2-.34,1.54L70,34.42l-.62,1.44-1.15,2.88-.58,1.4-.38,1.15-.15.14-1,2.5-.33,1.39-.15.82v.57l.1.29.62.58.29.14.72-.1.72-.28.91-.72.29-.15.38-.43.29-.1L70.7,45l.34-.24.38-.57.58-.44.19-.48.53-.52.86-1.25.15-.15,0-.28L74,41l.09-.34.24-.09.1-.58.24-.19.1-.34.19-.09L75.75,38l.43-.24H77l.72.39.34.67.1.72-.29.72L77,41.53l-.86,1.29-.2.34-.14.1-.67,1.34-.15.1,0,.19-.44.24v.19l-1,1.1-1,1.16-1.06,1.1-1.1,1-1.2.77-.48.14-.34.24-.33.1-.29.24-.77.24-1.39.24-.48-.1-.1-.09H63.41l-1.25-.48-.1-.2-.62-.38-.72-.91,0-.53-.19-.62-.34-.63,0-1.58.33-1.44.24-1.39.53-1.49.53-1.44L62.4,39l.34-1.58.38-.62.53-1.3.48-1.3.48-1.49.57-1.34,1.16-2.78,0-.2.15-.09.24-.77.57-1.39L68,24.73l.53-1.4L69,21.85l.52-.92L70,19.78l.1-.67h.1l.38-1.1.62-1,.29-.24.39,0v-.1l.52-.14Zm-9.89,30,.63,0,.24-.15L62.78,46l-.14,0,0,.38Zm.34,1.39,0,.19h.38l.1-.19-.15-.09-.24.09Zm1.39-2.49.38-.05.2-.39-.15-.09-.33.14-.1.29Zm2.3-7.06,0-.1-.14-.14-.34.14.29.1Zm-.33-3.7.43,0,.34-.38L67,33.8h-.34V34l-.33.53Zm.77,1.64.14.09h.72V36.2l-.14-.1-.48-.05-.24.15Zm.67-3.7-.1.19.05.14.48.34v-.43l.1-.15-.39-.19-.09,0Zm1.39-4.66.34.1.19-.1V27.7l-.39.05-.14.1Zm1.63-3.26.39-.05,0-.29-.33-.09-.1.28Zm1.39-2.59.24.28-.09.24.09.2h.24l.15-.1.14-.86-.38-.2-.24.15Z"/><path class="cls-1" d="M92.35,47.77l.87-.05.76-.24,1.25-.82,1.06-1,.14-.14,0-.29.29-.24.14-.29,1-1v-.2l.24-.09.87-1.2.72-1.2.53-.63.14-.38.29-.24,0-.29h.09v-.19l.24-.24.1-.34.72-.86.76-.1.73.29.48.58L104,39v.63l-.77,1.48,0,.24-.19.1v.19l-.24.24v.19l-.48.58-.19.1-.1.33-.33.19-.1.34-.77,1.1-.43.63-.58.57-.24.48-.19.1-.62.91-.58.53-.29.48h-.19L97.2,49,96,49.88l-.24,0-.09.24-.29,0-.34.24-.38.09-1,.58-.67.19h-.87l-.14.1-.58,0-.28.2-1.59-.15L88.08,51l-.14-.14-.29,0-.19-.34-.82-.86,0-.34-.24-.24v-.19l-.43-.33-.38,0-1.2.92-.15.14-.33.1-1.25.91L82,51l-.33.1-.24.24L80,51.56l-1.44,0-.87,0-.09-.1h-.24v-.09h-.2v-.1l-.38-.09-.19-.24h-.19l-.48-.58-.63-.53v-.19l-.67-1.3,0-.33-.24-.34,0-.67-.19-.62.24-1.54.1-1.54.29-.86.09-.86.39-1.44.48-1.92.28-.44v-.43H76l.48-1.44.58-1.44.72-1.3.57-1.05L79,30.77l1-1.2,1.24-1.24.1-.34.58-.58.62-.38.1-.14.19-.05.91-.67.53-.15.43-.24,1.54-.33L87,25.4l1.48.24.63.05v.09l.67.29,1.1,1.1.82,1,.43.05.34-.14.67-1.4.53-1.39L94.27,24l.58-1.39.43-1.25.43-1.2.39-.63.43-1.2L97.15,17l.63-.43.29-.1h1.68l1.39.15h.24l.09-.1h.34l.1.1h.19l.48.57v.72l-.53,1.44-.63,1.39,0,.34-.15.1-.19.67-.24.33-.19,1-.15.1-.62,1.44-.48,1.15L98.88,27l-.14.1-.48,1.39-.15.33v.24l-.28.24-.29.72-.29,1.4-.67,1.1L96,34.09l-.33.67-.49,1.49-.62,1.44L94,39.08l-.48,1.25L93,41.72l-.58,1.49-.05.24-.24.24L91.82,45l-.19,1.68.15.53.19.24.33.19Zm-16-1.63.19-.29V45.7l-.29-.09-.14.38.14.15ZM77.76,49l-.05-.34-.14-.09h-.34l.15.33.28.1Zm.1-3.46h.24l0-.09-.09-.15h-.19l-.1.1.1.05Zm.24-5.13.23.09.1-.19-.24-.1Zm.33,4,.19.09.15-.19-.24-.14,0,.14Zm1.2-5.86,0-.38L79.29,38v.38l.25.19Zm-.24-1.44h.24v-.19h-.24Zm.24-1.39.19.1.15-.2-.24-.14,0,.14Zm3.12,10.75,1.3-.81,1.15-1,.48-.63.58-.48,0-.28.29-.15,0-.29.24-.28.19-.77.39-.72.24-.87.24-.28.19-.77.53-1.35.09-.09,0-.34.48-1,0-.38.77-1.35.24-.76V33l-.15-.77-.48-1-.91-.91-.91-.24-.29.14h-.19l-.34.24-.29,0-.19.29-.33.05-.44.43-.33.1-.39.43-.09.33-1,1.11-.43.57-.19.53-.29.19-.1.44-.48.72-.05.38-.24.34-.52,1.2-.58,1.39-.34.72-.38,1.39-.29,1.49L80,44.22v1.24l.09.68.68.48.33.14h.77l.82-.24ZM80.5,34.61h.33v-.33h-.24l-.09.24Zm2.16-3.36h.24V31h-.24Zm.52-.24.29.24h.19l.1-.09V31l-.14-.15-.39.1Zm2.55-1.92L85.44,29l0,.19.15.1.19-.1Zm.53,16.61v-.19L86,45.42l0,.19.14.09Zm.43,1.11v-.58l-.24-.09-.1.38.05.24.14.05Zm.62-.58-.14.05,0,.19.38,0,.24-.19.05-.19H87.6l-.19.14Zm.48-1.39-.05-.19-.43-.15v.24l.1.1Zm-.48,2.5.48.24H88l.1-.44-.14-.09H87.7l-.34.19ZM88.22,43l.1-.2-.34,0,0,.15.19,0Zm1.2.72-.76.19-.15.14,0,.19.14.1h.39l.38.14,0,.1h.19l.15-.19-.1-.34ZM89.18,47l0-.19-.2-.19-.09,0,.14.1.05.29Zm.1,1.44.14-.58-.33-.09-.15.33.15.34Zm.24-6.19-.14-.1-.1.1v.29l.86-.1,0-.24-.1-.05-.38.1Zm.53-2.93.14-.34-.09-.62-.58,0,0,.43.43.53Zm0,5.76-.34-.14.05.19.29,0Zm.33-4.27-.09-.39-.24-.24-.15.48.34.15Zm-.09,6.33-.1-.57-.24-.1.1.58.14.09Zm-.24-4,.24.1.09-.19-.24-.15,0,.15Zm.86-2.3,0-.19-.14-.34-.15,0v.38l.15.1Zm-.09.57v.29l.19,0,.09.14.24,0,.1-.38-.34-.29-.19,0Zm.52-4.46.24.09.1-.23-.19-.1-.1.14Zm.68-.43.24-.05.57.24.15-.34-.34,0-.1-.15-.38.1-.1.14Zm.33-2.74v-.19l-.24-.24v.38l.15,0Zm1.06-.19-.77.14-.43.29.05.43.28.43v.53l.2-.05.24-.48-.34-.33.24-.05.77-.91.38.09.39-.09,0-.24-.29-.24-.19,0-.15-.24h-.33ZM93.22,38l-.53-.48-.34,0-.09.38.09.19.39.15.43-.1Zm0-1.73,0,.19.29.34h.15l0-.1-.43-.86-.38-.1-.39.05-.09.14.09.05v.19l.53.1Zm.09-5.76-.19-.1-.48.19.1.34-.2.53.2.72.24.48.43-.87-.34-.05L93,31.59l.19-.1.67.2,0-.29.09,0,0-.19-.24-.24-.15-.58.1-.48-.34-.14-.09.33.09.34Zm.1,5.13.24,0,.19-.28-.43-.15Zm1.44-4.7.33-.15.2-.62-.29-.1-.19.05-.05.72Zm.62-2,.15-.53-.44-.09,0,.38.15.19Zm.34-2.59.38-.15,0-.28-.33-.1-.1.19.05.24Zm.24,3.6h.19v-.24h-.19Zm.53-3.51-.1.77.1.24.33-.14.24-.29.19-.58,0-.14-.72-.48h-.29l-.05.1.34.43ZM97.87,21l.24.1.1-.2L98,20.84Zm.77,1.44,0-.29v.34Z"/><path class="cls-1" d="M11.11,15.73l1.62,1.19a.4.4,0,0,0,.63-.27l.22-2a.39.39,0,0,0-.55-.4l-1.85.81A.39.39,0,0,0,11.11,15.73Z"/><path class="cls-1" d="M11.66,4.44c2.26-1.91,5.54-1,5.54-1s-1.49-2.57-3-3S11.66,4.44,11.66,4.44Z"/><path class="cls-1" d="M18,4.07l-.93-.25S14,3,11.92,4.74L11,5.51l.27-1.16c.07-.35.8-3.42,2.07-4.17a1.15,1.15,0,0,1,1-.13c1.65.47,3.18,3.07,3.25,3.18Zm-5.7-.56a7,7,0,0,1,4-.63A5.51,5.51,0,0,0,14.08.81a.4.4,0,0,0-.32,0h0A5.44,5.44,0,0,0,12.33,3.51Z"/><path class="cls-1" d="M5.33,7.22C2.4,7.59.85,10.63.85,10.63S0,7.79.67,6.38,5.33,7.22,5.33,7.22Z"/><path class="cls-1" d="M.47,10.74c0-.12-.93-3-.16-4.54a1.16,1.16,0,0,1,.75-.61C2.47,5.16,5.22,6.7,5.53,6.88l1,.59-1.18.15C2.7,8,1.22,10.78,1.2,10.81l-.44.86Zm.82-4.39h0a.38.38,0,0,0-.25.2A5.45,5.45,0,0,0,1,9.63,7,7,0,0,1,4.2,7.09,5.43,5.43,0,0,0,1.29,6.35Z"/><path class="cls-1" d="M9.6,8.76a7.87,7.87,0,0,1,1.27,2.18,7.28,7.28,0,0,1,.35,1.21,3.1,3.1,0,0,1,.07,1.29c-.19-.39-.39-.74-.57-1.12a10.51,10.51,0,0,1-.51-1.13A9.22,9.22,0,0,1,9.6,8.76Z"/><path class="cls-1" d="M13.86,7.23h0A4.42,4.42,0,0,1,14.9,7,2.56,2.56,0,0,0,13.86,7.23Z"/><path class="cls-1" d="M16.23,11.81l-.17.12,0,0a2.6,2.6,0,0,0,.66-.46Z"/><path class="cls-1" d="M15.86,12h0L15,10s0,.06,0,.08a.72.72,0,0,1-1,.16.73.73,0,0,1-.15-1,.72.72,0,0,1,.73-.27l-.73-1.66A2.6,2.6,0,0,0,16,12h0a.15.15,0,0,0-.09,0Z"/><path class="cls-1" d="M16.23,11.81l.47-.32C19.78,9.34,21,9.14,21.49,9.27,18.56,7.05,16.21,6.87,14.9,7a4.42,4.42,0,0,0-1.06.23l-.07,0h0l.73,1.66a.8.8,0,0,1,.27.12A.7.7,0,0,1,15,10l.9,2h0l0,0A.15.15,0,0,1,16,12h0l0,0,0,0Z"/><path class="cls-1" d="M5.48,10.59h0a4.34,4.34,0,0,0-1,.52A2.66,2.66,0,0,1,5.48,10.59Z"/><path class="cls-1" d="M6.7,15.6l.21,0h0a2.39,2.39,0,0,1-.79.08Z"/><path class="cls-1" d="M7.12,15.51h0l-.67-2.13.08,0A.71.71,0,0,0,6.85,12a.73.73,0,0,0-.73.28l-.54-1.73a2.6,2.6,0,0,1,1.45,5H7l.08,0Z"/><path class="cls-1" d="M6.7,15.6l-.55.06c-3.74.41-4.81,1.08-5.07,1.48.74-3.6,2.4-5.29,3.48-6a4.34,4.34,0,0,1,1-.52l.07,0h0l.54,1.73a.69.69,0,0,0-.12.26.71.71,0,0,0,.46.82l.67,2.13h0l-.08,0H6.91Z"/></g></g></svg>